<svg width="400" height="400" viewBox="0 0 400 400" fill="none" xmlns="http://www.w3.org/2000/svg">
<path d="M128.67 249.022L71.1351 306.558C62.916 296.578 55.8709 285.422 50 273.681C62.3288 257.242 69.961 237.281 72.8969 215.558C73.4833 210.274 74.071 204.992 74.071 199.707C74.071 194.423 73.4833 189.139 72.8969 183.855C69.961 162.72 62.3288 142.759 50 125.734C55.8709 113.992 62.916 102.837 71.1351 92.8564L128.67 150.391C122.212 160.372 116.928 171.526 115.167 183.269C113.993 188.553 113.993 193.837 113.993 199.12C113.993 204.404 114.579 209.688 115.167 214.972C117.515 227.887 122.212 239.042 128.67 249.022Z" fill="white"/>
<path d="M306.562 328.865C296.581 337.084 285.427 344.13 273.684 350C257.247 337.671 237.286 330.039 215.563 327.103C210.279 326.517 204.995 325.929 199.712 325.929C194.428 325.929 189.144 326.517 183.86 327.103C162.725 330.039 142.764 337.671 125.739 350C113.996 344.13 102.842 337.084 92.8613 328.865L150.396 271.33C160.377 277.788 171.531 283.071 183.274 284.833C188.558 286.007 193.84 286.007 199.125 286.007C204.409 286.007 209.693 285.421 214.976 284.833C227.304 282.485 238.46 277.788 247.853 271.33L306.562 328.865Z" fill="white"/>
<path d="M327.107 183.855C326.519 189.139 325.933 194.423 325.933 199.707C325.933 204.99 326.519 210.274 327.107 215.558C330.043 236.693 337.674 256.654 350.004 273.681C344.132 285.422 337.087 296.576 328.867 306.557L271.334 249.022C278.379 239.041 283.075 227.887 284.837 216.144C286.011 210.862 286.011 205.578 286.011 200.293C286.011 195.009 285.423 189.727 284.837 184.443C282.489 172.114 277.791 160.959 271.334 151.565L328.867 94.0303C337.087 104.011 344.132 115.165 350.004 126.908C338.262 142.759 330.043 162.72 327.107 183.855Z" fill="white"/>
<path d="M306.558 71.1351L249.023 128.67C239.042 122.212 227.888 116.929 216.145 115.167C210.861 113.993 205.579 113.993 200.294 113.993C195.01 113.993 189.726 114.579 184.442 115.167C172.113 117.515 160.959 122.212 151.566 128.67L94.0312 71.1351C104.012 62.916 115.166 55.8709 126.909 50C143.346 62.3288 163.307 69.961 185.03 72.8969C190.314 73.4833 195.598 74.071 200.881 74.071C206.165 74.071 211.449 73.4833 216.733 72.8969C237.868 69.961 257.829 62.3288 274.854 50C286.009 55.8709 296.577 62.916 306.558 71.1351Z" fill="white"/>
<path d="M255.483 199.705C255.483 204.989 254.897 210.274 253.135 215.558C251.961 219.08 250.787 222.602 249.026 225.538C243.742 234.931 236.11 242.563 226.716 247.847C223.781 249.609 220.259 250.782 216.735 251.957C211.452 253.718 206.168 254.306 200.884 254.306C195.6 254.306 190.316 253.718 185.033 251.957C181.511 250.782 177.987 249.609 175.053 247.847C165.658 242.563 157.44 234.931 152.743 225.538C150.982 222.602 149.807 219.08 148.633 215.558C146.872 210.274 146.285 204.989 146.285 199.705C146.285 194.423 146.872 189.138 148.633 183.854C149.807 180.332 150.982 176.81 152.743 173.874C158.026 164.48 165.658 156.849 175.053 151.565C177.987 149.803 181.511 148.629 185.033 147.455C190.316 145.693 195.6 145.106 200.884 145.106C206.168 145.106 211.452 145.693 216.735 147.455C220.259 148.629 223.781 149.803 226.716 151.565C236.11 156.849 244.328 164.48 249.026 173.874C250.787 176.81 251.961 180.332 253.135 183.854C254.309 189.138 255.483 194.423 255.483 199.705Z" fill="white"/>
</svg>
